<svg xmlns="http://www.w3.org/2000/svg" viewBox="0 0 1120 760" width="1120" height="760">
  <defs>
    <marker id="arrowA" markerWidth="10" markerHeight="7" refX="9" refY="3.5" orient="auto">
      <polygon points="0 0, 10 3.5, 0 7" fill="#d97757"/>
    </marker>
    <marker id="arrowB" markerWidth="10" markerHeight="7" refX="9" refY="3.5" orient="auto">
      <polygon points="0 0, 10 3.5, 0 7" fill="#7b8b5c"/>
    </marker>
    <marker id="arrowC" markerWidth="10" markerHeight="7" refX="9" refY="3.5" orient="auto">
      <polygon points="0 0, 10 3.5, 0 7" fill="#8c6f5a"/>
    </marker>
    <marker id="arrowE" markerWidth="10" markerHeight="7" refX="9" refY="3.5" orient="auto">
      <polygon points="0 0, 10 3.5, 0 7" fill="#b45309"/>
    </marker>
    <marker id="arrowF" markerWidth="10" markerHeight="7" refX="9" refY="3.5" orient="auto">
      <polygon points="0 0, 10 3.5, 0 7" fill="#9a6fb0"/>
    </marker>
    <marker id="arrowG" markerWidth="10" markerHeight="7" refX="9" refY="3.5" orient="auto">
      <polygon points="0 0, 10 3.5, 0 7" fill="#d97757"/>
    </marker>
    <marker id="arrowH" markerWidth="10" markerHeight="7" refX="9" refY="3.5" orient="auto">
      <polygon points="0 0, 10 3.5, 0 7" fill="#8f8a80"/>
    </marker>
    <style>
    text { font-family: 'Helvetica Neue', Helvetica, Arial, 'PingFang SC', 'Microsoft YaHei', 'Microsoft JhengHei', 'SimHei', sans-serif; }
    .title { font-size: 24px; font-weight: 700; fill: #141413; }
    .subtitle { font-size: 13px; font-weight: 500; fill: #8f8a80; }
    .section { font-size: 13px; font-weight: 700; fill: #8b7355; letter-spacing: 1.4px; }
    .section-sub { font-size: 12px; font-weight: 500; fill: #b4aba0; }
    .node-title { font-size: 18px; font-weight: 700; fill: #141413; }
    .node-sub { font-size: 12px; font-weight: 500; fill: #6b6257; }
    .node-type { font-size: 11px; font-weight: 700; fill: #a29a8f; letter-spacing: 0.08em; }
    .arrow-label { font-size: 12px; font-weight: 600; fill: #6b6257; }
    .legend { font-size: 12px; font-weight: 500; fill: #6b6257; }
    .footnote { font-size: 12px; font-weight: 500; fill: #a29a8f; }
    </style>
  </defs>
  <rect width="1120.0" height="760.0" fill="#f8f6f3"/>
  <text x="560.0" y="56" text-anchor="middle" class="title">DASH Design Infra</text>
  <text x="560.0" y="82" text-anchor="middle" class="subtitle">From readable design intent to browser proof and print-ready output</text>
  <rect x="44.0" y="112.0" width="1032.0" height="100.0" rx="16.0" fill="none" stroke="#ded8cf" stroke-width="1.4" stroke-dasharray="5 4"/>
  <text x="26.0" y="162.0" text-anchor="start" dominant-baseline="middle" font-size="14.0" font-weight="600" fill="#6b6257">Entry</text>
  <rect x="44.0" y="244.0" width="1032.0" height="118.0" rx="16.0" fill="none" stroke="#ded8cf" stroke-width="1.4" stroke-dasharray="5 4"/>
  <text x="26.0" y="303.0" text-anchor="start" dominant-baseline="middle" font-size="14.0" font-weight="600" fill="#6b6257">Source</text>
  <rect x="44.0" y="394.0" width="1032.0" height="118.0" rx="16.0" fill="none" stroke="#ded8cf" stroke-width="1.4" stroke-dasharray="5 4"/>
  <text x="26.0" y="453.0" text-anchor="start" dominant-baseline="middle" font-size="14.0" font-weight="600" fill="#6b6257">Taste</text>
  <rect x="44.0" y="544.0" width="1032.0" height="126.0" rx="16.0" fill="none" stroke="#ded8cf" stroke-width="1.4" stroke-dasharray="5 4"/>
  <text x="26.0" y="607.0" text-anchor="start" dominant-baseline="middle" font-size="14.0" font-weight="600" fill="#6b6257">Proof</text>
  <path d="M 171.0,190.0 L 171.0,226.0 L 554.0,226.0 L 554.0,270.0" fill="none" stroke="#8c6f5a" stroke-width="2.0" marker-end="url(#arrowC)"/>
  <path d="M 440.0,190.0 L 440.0,226.0 L 554.0,226.0 L 554.0,270.0" fill="none" stroke="#8c6f5a" stroke-width="2.0" marker-end="url(#arrowC)"/>
  <path d="M 716.0,190.0 L 716.0,226.0 L 554.0,226.0 L 554.0,270.0" fill="none" stroke="#8c6f5a" stroke-width="2.0" marker-end="url(#arrowC)"/>
  <path d="M 300.0,311.0 L 430.0,311.0" fill="none" stroke="#7b8b5c" stroke-width="2.0" marker-end="url(#arrowB)"/>
  <path d="M 810.0,311.0 L 678.0,311.0" fill="none" stroke="#b45309" stroke-width="2.0" marker-end="url(#arrowE)"/>
  <path d="M 554.0,352.0 L 554.0,372.4 L 298.0,403.6 L 298.0,424.0" fill="none" stroke="#d97757" stroke-width="2.0" marker-end="url(#arrowA)"/>
  <path d="M 554.0,352.0 L 554.0,372.4 L 808.0,403.6 L 808.0,424.0" fill="none" stroke="#d97757" stroke-width="2.0" marker-end="url(#arrowA)"/>
  <path d="M 298.0,484.0 L 298.0,504.4 L 201.0,567.6 L 201.0,588.0" fill="none" stroke="#8c6f5a" stroke-width="2.0" marker-end="url(#arrowC)"/>
  <path d="M 554.0,352.0 L 554.0,588.0 L 559.0,588.0" fill="none" stroke="#b45309" stroke-width="2.0" marker-end="url(#arrowE)"/>
  <path d="M 808.0,484.0 L 808.0,504.4 L 915.0,567.6 L 915.0,588.0" fill="none" stroke="#8c6f5a" stroke-width="2.0" marker-end="url(#arrowC)"/>
  <path d="M 654.0,618.0 L 820.0,618.0" fill="none" stroke="#d97757" stroke-width="2.0" marker-end="url(#arrowA)"/>
  <path d="M 915.0,588.0 L 1010.0,544.0 L 1010.0,212.0 L 963.0,212.0 L 963.0,190.0" fill="none" stroke="#d97757" stroke-width="2.0" marker-end="url(#arrowA)" stroke-dasharray="6,4"/>
  <rect x="82.0" y="138.0" width="178.0" height="52.0" rx="10.0" fill="#e9f1fb" stroke="#8c6f5a" stroke-width="1.8"/>
  <text x="171.0" y="156.0" text-anchor="middle" class="node-type">PUBLIC</text>
  <text x="171.0" y="170.0" text-anchor="middle" class="node-title">README + Docs</text>
  <rect x="346.0" y="138.0" width="188.0" height="52.0" rx="10.0" fill="#e9f1fb" stroke="#8c6f5a" stroke-width="1.8"/>
  <text x="440.0" y="156.0" text-anchor="middle" class="node-type">PATTERNS</text>
  <text x="440.0" y="170.0" text-anchor="middle" class="node-title">Usecases</text>
  <rect x="622.0" y="138.0" width="188.0" height="52.0" rx="10.0" fill="#e9f1fb" stroke="#8c6f5a" stroke-width="1.8"/>
  <text x="716.0" y="156.0" text-anchor="middle" class="node-type">HTML</text>
  <text x="716.0" y="170.0" text-anchor="middle" class="node-title">Examples</text>
  <rect x="888.0" y="138.0" width="150.0" height="52.0" rx="10.0" fill="#e9f1fb" stroke="#8c6f5a" stroke-width="1.8"/>
  <text x="963.0" y="156.0" text-anchor="middle" class="node-type">SHIP</text>
  <text x="963.0" y="170.0" text-anchor="middle" class="node-title">Agent Surface</text>
  <rect x="134.0" y="282.0" width="166.0" height="58.0" rx="10.0" fill="#f7ecda" stroke="#d0b893" stroke-width="1.8"/>
  <text x="217.0" y="300.0" text-anchor="middle" class="node-type">RATIOS</text>
  <text x="217.0" y="317.0" text-anchor="middle" class="node-title">@dash/scale</text>
  <rect x="430.0" y="270.0" width="248.0" height="82.0" rx="10.0" fill="#c8e4db" stroke="#8c6f5a" stroke-width="2.0"/>
  <rect x="436.0" y="276.0" width="236.0" height="70.0" rx="7.0" fill="none" stroke="#8c6f5a" stroke-width="1.2" opacity="0.65"/>
  <text x="554.0" y="288.0" text-anchor="middle" class="node-type">SOURCE OF TRUTH</text>
  <text x="554.0" y="317.0" text-anchor="middle" class="node-title">@dash/tokens</text>
  <rect x="810.0" y="282.0" width="170.0" height="58.0" rx="10.0" fill="#f7ecda" stroke="#d0b893" stroke-width="1.8"/>
  <text x="895.0" y="300.0" text-anchor="middle" class="node-type">BASELINE</text>
  <text x="895.0" y="317.0" text-anchor="middle" class="node-title">@dash/metrics</text>
  <rect x="188.0" y="424.0" width="220.0" height="60.0" rx="10.0" fill="#efe8de" stroke="#d0c3b3" stroke-width="1.8"/>
  <text x="298.0" y="442.0" text-anchor="middle" class="node-type">DOCUMENT TASTE</text>
  <text x="298.0" y="460.0" text-anchor="middle" class="node-title">@dash/kami</text>
  <rect x="698.0" y="424.0" width="220.0" height="60.0" rx="10.0" fill="#efe8de" stroke="#d0c3b3" stroke-width="1.8"/>
  <text x="808.0" y="442.0" text-anchor="middle" class="node-type">KINETIC GRAMMAR</text>
  <text x="808.0" y="460.0" text-anchor="middle" class="node-title">@dash/p5-motion</text>
  <rect x="106.0" y="588.0" width="190.0" height="60.0" rx="10.0" fill="#e5e8df" stroke="#7b8b5c" stroke-width="1.8"/>
  <text x="201.0" y="606.0" text-anchor="middle" class="node-type">BROWSER CHECK</text>
  <text x="201.0" y="624.0" text-anchor="middle" class="node-title">@dash/measure</text>
  <rect x="464.0" y="588.0" width="190.0" height="60.0" rx="10.0" fill="#e5e8df" stroke="#7b8b5c" stroke-width="1.8"/>
  <text x="559.0" y="606.0" text-anchor="middle" class="node-type">CONSTRAINTS</text>
  <text x="559.0" y="624.0" text-anchor="middle" class="node-title">@dash/layout</text>
  <rect x="820.0" y="588.0" width="190.0" height="60.0" rx="10.0" fill="#e5e8df" stroke="#7b8b5c" stroke-width="1.8"/>
  <text x="915.0" y="606.0" text-anchor="middle" class="node-type">PDF</text>
  <text x="915.0" y="624.0" text-anchor="middle" class="node-title">@dash/print</text>
  <rect x="334.5" y="196.0" width="56" height="20" rx="6" fill="#f8f6f3" opacity="0.96"/>
  <text x="362.5" y="210.0" text-anchor="middle" class="arrow-label">intent</text>
  <rect x="319.5" y="281.0" width="91" height="20" rx="6" fill="#f8f6f3" opacity="0.96"/>
  <text x="365.0" y="295.0" text-anchor="middle" class="arrow-label">write scale</text>
  <rect x="705.5" y="281.0" width="77" height="20" rx="6" fill="#f8f6f3" opacity="0.96"/>
  <text x="744.0" y="295.0" text-anchor="middle" class="arrow-label">font math</text>
  <rect x="391.0" y="358.0" width="70" height="20" rx="6" fill="#f8f6f3" opacity="0.96"/>
  <text x="426.0" y="372.0" text-anchor="middle" class="arrow-label">document</text>
  <rect x="653.0" y="358.0" width="56" height="20" rx="6" fill="#f8f6f3" opacity="0.96"/>
  <text x="681.0" y="372.0" text-anchor="middle" class="arrow-label">motion</text>
  <rect x="214.5" y="506.0" width="70" height="20" rx="6" fill="#f8f6f3" opacity="0.96"/>
  <text x="249.5" y="520.0" text-anchor="middle" class="arrow-label">page fit</text>
  <rect x="826.5" y="506.0" width="70" height="20" rx="6" fill="#f8f6f3" opacity="0.96"/>
  <text x="861.5" y="520.0" text-anchor="middle" class="arrow-label">artifact</text>
  <rect x="953.5" y="364.0" width="77" height="20" rx="6" fill="#f8f6f3" opacity="0.96"/>
  <text x="992.0" y="378.0" text-anchor="middle" class="arrow-label">ship loop</text>
  <rect x="911.0" y="660.0" width="177" height="112" rx="10" fill="#fffaf3" opacity="0.88"/>
  <line x1="921.0" y1="674.0" x2="951.0" y2="674.0" stroke="#8c6f5a" stroke-width="2.0" marker-end="url(#arrowC)"/>
  <text x="961.0" y="678.0" class="legend">source read</text>
  <line x1="921.0" y1="696.0" x2="951.0" y2="696.0" stroke="#7b8b5c" stroke-width="2.0" marker-end="url(#arrowB)"/>
  <text x="961.0" y="700.0" class="legend">generated write</text>
  <line x1="921.0" y1="718.0" x2="951.0" y2="718.0" stroke="#d97757" stroke-width="2.0" marker-end="url(#arrowA)"/>
  <text x="961.0" y="722.0" class="legend">design rule</text>
  <line x1="921.0" y1="740.0" x2="951.0" y2="740.0" stroke="#d97757" stroke-width="2.0" marker-end="url(#arrowA)"/>
  <text x="961.0" y="744.0" class="legend">release loop</text>
</svg>